<svg width="26" height="21" fill="none" xmlns="http://www.w3.org/2000/svg"><path d="M18.5 19.667h5.833v-2.334a3.5 3.5 0 0 0-6.248-2.166m.415 4.5l-.415-4.5m.415 4.5H6.833m11.667 0v-2.334c0-.765-.147-1.496-.415-2.166m0 0a5.836 5.836 0 0 0-10.836 0m10.836 0H7.249m-.416 4.5H1v-2.334a3.5 3.5 0 0 1 6.249-2.166m-.416 4.5l.416-4.5m-.416 4.5v-2.334c0-.765.147-1.496.416-2.166M16.167 4.5a3.5 3.5 0 1 1-7 0 3.5 3.5 0 0 1 7 0zm7 3.5A2.333 2.333 0 1 1 18.5 8a2.333 2.333 0 0 1 4.667 0zM6.833 8a2.333 2.333 0 1 1-4.666 0 2.333 2.333 0 0 1 4.666 0z" stroke="#0F609B" stroke-width="2" stroke-linecap="round" stroke-linejoin="round"/></svg>