<svg width="50" height="51" viewBox="0 0 50 51" fill="none" xmlns="http://www.w3.org/2000/svg">
<circle cx="25" cy="25.7778" r="25" fill="#DCEEFB"/>
<path d="M20.3333 18.1112V28.7778C20.3333 29.4851 20.6143 30.1634 21.1144 30.6635C21.6145 31.1635 22.2928 31.4445 23 31.4445H31M20.3333 18.1112V15.4445C20.3333 14.7373 20.6143 14.059 21.1144 13.5589C21.6145 13.0588 22.2928 12.7778 23 12.7778H29.1147C29.4683 12.7779 29.8073 12.9184 30.0573 13.1685L35.9427 19.0538C36.1927 19.3038 36.3333 19.6429 36.3333 19.9965V28.7778C36.3333 29.4851 36.0524 30.1634 35.5523 30.6635C35.0522 31.1635 34.3739 31.4445 33.6667 31.4445H31M20.3333 18.1112H17.6667C16.9594 18.1112 16.2811 18.3921 15.781 18.8922C15.281 19.3923 15 20.0706 15 20.7778V34.1112C15 34.8184 15.281 35.4967 15.781 35.9968C16.2811 36.4969 16.9594 36.7778 17.6667 36.7778H28.3333C29.0406 36.7778 29.7189 36.4969 30.219 35.9968C30.719 35.4967 31 34.8184 31 34.1112V31.4445" stroke="#0F609B" stroke-width="2" stroke-linecap="round" stroke-linejoin="round"/>
</svg>
