<svg width="22" height="21" viewBox="0 0 22 21" fill="none" xmlns="http://www.w3.org/2000/svg">
<path d="M11 0C4.4004 0 4.4004 6.5996 4.4004 6.5996V7.69954C4.4004 7.69954 4.37565 7.69739 4.33165 7.69739C3.95768 7.69739 2.20053 7.77492 2.20053 9.23343C2.20053 10.9328 4.06695 10.9993 4.36173 10.9993H4.4004C4.4004 12.0993 2.58295 13.3866 1.39062 13.6847C0.279686 14.1159 0.014963 14.8521 0.000663863 15.4098C-0.00813561 15.7431 0.072675 16.0121 0.116673 16.1166C0.531347 17.09 1.763 17.5925 2.96963 17.5925C3.01142 19.1753 4.15369 19.7988 4.91814 19.7988C5.79149 19.7988 6.71628 19.3713 6.71628 19.3713C6.76137 19.4087 8.16767 20.8987 11 20.8987C13.8323 20.8987 15.2397 19.4087 15.2859 19.3713C15.2859 19.3713 16.2074 19.7988 17.0819 19.7988C17.8463 19.7988 18.9886 19.1753 19.0304 17.5925C20.237 17.5925 21.4687 17.09 21.8833 16.1166C21.9273 16.0121 22.0081 15.7431 21.9993 15.4098C21.985 14.8521 21.7203 14.1159 20.6094 13.6847C19.4171 13.3866 17.5996 12.0993 17.5996 10.9993H17.6383C17.9331 10.9993 19.7995 10.9328 19.7995 9.23343C19.7995 7.77492 18.0423 7.69739 17.6683 7.69739C17.6244 7.69739 17.5996 7.69954 17.5996 7.69954V6.5996C17.5996 6.5996 17.5996 0 11 0ZM11 2.19987C15.0181 2.19987 15.3832 5.57996 15.3997 6.5996V10.9993C15.3997 13.0496 17.3213 14.626 18.9294 15.3926H16.8864L16.8305 17.5366C16.8305 17.5476 16.8284 17.5579 16.8284 17.5689C16.6062 17.5238 16.3505 17.4393 16.2075 17.3755L14.9658 16.8019L13.9002 17.6634L13.8121 17.7364L13.7434 17.8009C13.6488 17.8922 12.7588 18.6989 11 18.6989C9.24121 18.6989 8.35016 17.8933 8.25446 17.8009L8.17068 17.7192L8.09764 17.6612L7.03637 16.8213L5.80539 17.3691C5.6536 17.4373 5.39493 17.5238 5.17164 17.5689C5.17054 17.559 5.16949 17.5476 5.16949 17.5366L5.11364 15.3948H3.0706C4.6787 14.627 6.60027 13.0496 6.60027 10.9993V6.5996C6.60027 5.86485 6.81255 2.19987 11 2.19987Z" fill="#F0B429"/>
</svg>
