<svg width="700" height="684" viewBox="0 0 700 684" fill="none" xmlns="http://www.w3.org/2000/svg">
<path d="M88.5763 289.408C90.01 289.408 91.1722 288.246 91.1722 286.812C91.1722 285.379 90.01 284.217 88.5763 284.217C87.1427 284.217 85.9805 285.379 85.9805 286.812C85.9805 288.246 87.1427 289.408 88.5763 289.408Z" fill="#BFD9FF"/>
<path d="M364.942 463.206C366.376 463.206 367.538 462.043 367.538 460.61C367.538 459.176 366.376 458.014 364.942 458.014C363.508 458.014 362.346 459.176 362.346 460.61C362.346 462.043 363.508 463.206 364.942 463.206Z" fill="#BFD9FF"/>
<path d="M567.547 66.9229C568.981 66.9229 570.143 65.7607 570.143 64.327C570.143 62.8934 568.981 61.7311 567.547 61.7311C566.113 61.7311 564.951 62.8934 564.951 64.327C564.951 65.7607 566.113 66.9229 567.547 66.9229Z" fill="#BFD9FF"/>
<path d="M461.116 147.458C462.55 147.458 463.712 146.296 463.712 144.863C463.712 143.429 462.55 142.267 461.116 142.267C459.682 142.267 458.52 143.429 458.52 144.863C458.52 146.296 459.682 147.458 461.116 147.458Z" fill="#BFD9FF"/>
<path d="M91.1722 104.721C92.6059 104.721 93.7681 103.559 93.7681 102.125C93.7681 100.692 92.6059 99.5296 91.1722 99.5296C89.7385 99.5296 88.5763 100.692 88.5763 102.125C88.5763 103.559 89.7385 104.721 91.1722 104.721Z" fill="#BFD9FF"/>
<path d="M597.495 304.92C598.823 304.92 599.9 303.843 599.9 302.514C599.9 301.186 598.823 300.108 597.495 300.108C596.166 300.108 595.089 301.186 595.089 302.514C595.089 303.843 596.166 304.92 597.495 304.92Z" fill="#BFD9FF"/>
<path d="M173.417 374.439C174.746 374.439 175.823 373.362 175.823 372.033C175.823 370.705 174.746 369.627 173.417 369.627C172.088 369.627 171.011 370.705 171.011 372.033C171.011 373.362 172.088 374.439 173.417 374.439Z" fill="#BFD9FF"/>
<path d="M520.505 531.078H311.378C295.993 531.078 284.976 516.199 289.535 501.447L326.574 382.037L347.151 315.621C352.279 299.096 347.151 281.241 334.235 269.718C324.801 261.234 316.633 251.293 310.239 240.277C299.665 222.232 293.65 201.149 293.65 178.736C293.65 111.876 347.341 57.5524 413.947 56.4761C481.82 55.3998 537.219 109.027 538.233 176.899C538.802 213.875 522.911 247.178 497.395 269.971C484.606 281.431 479.604 299.286 484.732 315.747L542.348 501.574C546.843 516.136 535.89 531.078 520.505 531.078Z" fill="#2B2B2B"/>
<path d="M213.812 293.461L207.797 306.693C203.745 315.557 193.298 319.42 184.497 315.367C176.52 311.695 172.531 302.831 174.873 294.6L177.469 285.23" fill="#FDC068"/>
<path d="M177.406 285.293L198.426 210.139C199.819 205.137 202.985 201.149 207.037 198.679L208.556 197.793L288.206 148.851C299.665 141.823 314.671 145.369 321.762 156.829C328.79 168.289 325.244 183.294 313.784 190.385L234.135 239.327L244.266 226.918L213.875 293.524" fill="url(#paint0_linear)"/>
<path d="M485.808 206.151C482.579 190.765 467.447 180.888 452.062 184.117L421.165 190.639C420.025 190.702 418.949 190.892 417.809 191.082C416.543 191.335 415.34 191.652 414.2 192.095L230.463 230.78L230.273 229.83C220.523 181.838 173.48 150.687 125.488 160.501C102.252 165.25 82.1816 178.736 69.1389 198.553C56.0329 218.37 51.411 242.05 56.1595 265.349L67.9993 323.408C72.7478 346.644 86.2337 366.715 106.051 379.758C120.74 389.508 137.645 394.51 154.929 394.51C160.881 394.51 166.896 393.94 172.847 392.674C196.084 387.925 216.154 374.439 229.197 354.622C242.303 334.805 246.925 311.125 242.176 287.826L241.923 286.496L401.474 252.876L405.969 274.91C408.692 288.395 420.595 297.703 433.828 297.703C435.727 297.703 437.626 297.513 439.526 297.133C454.975 293.967 464.915 278.962 461.749 263.513L457.19 241.1L463.902 239.707C479.224 236.605 489.037 221.536 485.808 206.151ZM181.585 323.218C176.899 330.309 169.682 335.185 161.387 336.894C153.03 338.604 144.546 336.957 137.455 332.272C130.364 327.587 125.488 320.369 123.779 312.075L111.939 254.016C110.23 245.659 111.876 237.174 116.561 230.083C121.246 222.992 128.464 218.117 136.758 216.407C138.911 215.964 141 215.774 143.153 215.774C157.968 215.774 171.328 226.221 174.367 241.29L186.207 299.349C187.916 307.643 186.27 316.127 181.585 323.218Z" fill="#C7982A"/>
<path d="M492.71 203.935C489.481 188.549 474.349 178.672 458.963 181.901L237.364 228.564L237.174 227.614C227.424 179.622 180.382 148.471 132.39 158.285C109.153 163.034 89.0829 176.52 76.0402 196.337C62.9342 216.154 58.3122 239.834 63.0608 263.133L74.9005 321.192C79.6491 344.428 93.135 364.499 112.952 377.542C127.641 387.292 144.546 392.294 161.831 392.294C167.782 392.294 173.797 391.724 179.749 390.458C202.985 385.709 223.055 372.223 236.098 352.406C249.204 332.589 253.826 308.909 249.077 285.61L248.824 284.28L408.376 250.66L412.871 272.694C415.593 286.18 427.496 295.487 440.729 295.487C442.628 295.487 444.528 295.297 446.427 294.917C461.876 291.751 471.816 276.746 468.651 261.297L464.092 238.884L470.803 237.491C486.125 234.452 495.939 219.383 492.71 203.935ZM188.486 321.066C183.801 328.157 176.583 333.032 168.289 334.741C159.931 336.451 151.447 334.805 144.356 330.119C137.265 325.434 132.39 318.216 130.68 309.922L118.84 251.863C117.131 243.506 118.777 235.022 123.462 227.931C128.148 220.839 135.365 215.964 143.66 214.255C145.812 213.812 147.902 213.622 150.054 213.622C164.87 213.622 178.229 224.068 181.268 239.137L193.108 297.196C194.817 305.49 193.171 313.974 188.486 321.066Z" fill="#FDE545"/>
<path d="M237.111 227.677L259.398 224.638L249.267 285.293L237.111 227.677Z" fill="#2B2B2B"/>
<path d="M377.288 122.07L378.808 127.515C379.124 128.591 378.428 129.731 377.352 129.984L374.629 130.3" fill="#FDC068"/>
<path d="M374.629 131.123C374.186 131.123 373.869 130.807 373.806 130.364C373.743 129.92 374.059 129.477 374.502 129.477L377.162 129.161C377.478 129.097 377.732 128.907 377.858 128.591C378.048 128.338 378.048 128.021 377.985 127.704L376.465 122.259C376.339 121.816 376.592 121.373 377.035 121.246C377.478 121.12 377.921 121.373 378.048 121.816L379.568 127.261C379.758 127.958 379.694 128.781 379.314 129.414C378.935 130.11 378.301 130.554 377.542 130.743H377.478L374.756 131.06C374.692 131.123 374.629 131.123 374.629 131.123Z" fill="#2B2B2B"/>
<path d="M348.734 144.419L333.222 137.328C325.181 133.656 321.635 124.159 325.371 116.118L336.071 92.6917C341.959 79.839 357.155 74.204 370.007 80.0923C382.86 85.9805 388.495 101.176 382.607 114.029L372.793 135.492C368.614 144.546 357.851 148.598 348.734 144.419Z" fill="#FDC068"/>
<path d="M380.707 118.144L378.365 123.336C377.668 122.829 377.162 121.943 377.162 120.993C377.162 119.41 378.491 118.081 380.074 118.081C380.327 118.081 380.517 118.081 380.707 118.144Z" fill="#2B2B2B"/>
<path d="M315.367 156.386L311.062 152.08C309.162 150.181 308.656 147.205 309.922 144.799L330.183 105.544L354.938 116.878L341.453 150.877C337.211 161.577 323.471 164.426 315.367 156.386Z" fill="#FDC068"/>
<path d="M344.745 142.583L336.641 138.848L341.579 150.624L344.745 142.583Z" fill="#2B2B2B"/>
<path d="M348.544 234.262C354.179 210.266 337.464 207.417 347.594 192.855C357.724 178.229 355.762 153.853 337.337 149.548C323.091 146.192 322.268 145.369 316.254 143.976C297.323 139.481 279.721 155.689 280.861 175.127C280.861 175.127 281.368 179.559 279.911 184.94C278.455 190.322 263.26 195.197 259.398 211.722L348.544 234.262Z" fill="url(#paint1_linear)"/>
<path d="M326.321 235.022L326.194 237.428L326.004 239.77L325.624 244.519L324.675 253.953C324.358 257.118 323.978 260.221 323.598 263.386L322.395 272.757C320.686 285.23 318.66 297.703 316.444 310.112C314.228 322.522 311.758 334.868 309.163 347.214C306.503 359.56 303.718 371.843 300.678 384.126L299.476 389.065C298.589 392.61 296.88 395.903 294.664 398.499C285.863 408.882 276.999 419.139 268.008 429.333L261.234 436.93L254.333 444.465C249.774 449.53 245.089 454.468 240.467 459.47C231.096 469.41 221.663 479.287 211.912 488.911C202.098 498.535 190.385 511.831 179.939 520.948L157.652 473.842L238.567 358.041L232.489 372.603L259.461 212.988L326.321 235.022Z" fill="url(#paint2_linear)"/>
<path d="M259.398 211.722C256.422 224.385 265.222 246.482 287.256 251.863L305.174 255.662C325.244 260.601 345.695 246.482 348.924 232.806L259.398 211.722Z" fill="url(#paint3_linear)"/>
<path d="M184.37 558.43L148.408 491.95C146.509 488.468 147.775 484.099 151.194 482.136L157.652 473.842L181.838 519.682L191.208 555.771C192.221 560.013 186.397 562.292 184.37 558.43Z" fill="#2B2B2B"/>
<path d="M430.409 531.078H380.011L334.615 404.703L331.322 395.08L329.676 390.268L327.84 385.519L326.511 382.037L320.622 366.588L306.123 328.663L277.189 252.813L310.176 240.213L342.276 227.994C348.544 240.213 353.989 252.75 359.244 265.349C364.436 277.949 369.311 290.675 373.996 303.528C376.275 309.986 378.618 316.38 380.771 322.838C381.847 326.067 382.987 329.296 384.063 332.525L387.229 342.276C388.305 345.505 389.318 348.797 390.331 352.026L393.37 361.776L394.826 366.715L396.156 371.653L398.752 381.594C405.59 408.059 411.984 434.778 417.619 461.623C420.469 475.045 423.191 488.531 425.597 502.08C426.8 508.855 428.066 515.63 429.079 522.468C429.522 525.317 429.966 528.166 430.409 531.078Z" fill="url(#paint4_linear)"/>
<path d="M423.508 291.941L435.157 301.248C442.755 307.326 443.958 318.406 437.943 326.004C432.435 332.905 422.811 334.551 415.403 330.246L406.096 324.864" fill="#FDC068"/>
<path d="M311.568 224.005C311.568 224.005 310.682 287.889 323.915 298.209C337.147 308.529 381.467 324.928 381.467 324.928L350 244.202L329.74 225.778L311.568 224.005Z" fill="#2B2B2B"/>
<path d="M406.096 324.928L337.211 285.166C331.829 282.064 328.347 276.872 327.27 271.174L326.954 269.401L312.012 187.979C309.606 174.747 318.343 162.021 331.576 159.615C344.808 157.209 357.534 165.946 359.94 179.179L374.882 260.601L364.626 244.899L423.508 292.004" fill="url(#paint5_linear)"/>
<path d="M384.886 104.848L381.087 105.165C375.262 105.671 370.451 109.913 369.248 115.675L366.905 126.501L358.104 125.172L340.883 134.289C336.894 136.378 332.209 136.695 328.03 135.175L316.95 131.123L336.578 90.729C342.592 78.3828 357.281 72.9378 369.881 78.4461L375.959 81.1053C385.139 85.1574 389.128 95.8575 384.886 104.848Z" fill="#B37F56"/>
<path d="M368.741 101.112L386.532 106.368C391.091 107.697 395.903 105.671 398.182 101.492L400.208 97.6935C403.057 92.4385 400.715 85.9171 395.206 83.6378C393.117 82.7514 390.838 82.6248 388.622 83.2579L381.72 85.2207L368.741 101.112Z" fill="#B37F56"/>
<path d="M359.37 128.464C357.598 128.021 356.458 126.185 356.901 124.412L359.307 114.662C359.75 112.889 361.586 111.749 363.359 112.192C365.132 112.636 366.272 114.472 365.828 116.245L363.423 125.995C363.043 127.768 361.207 128.907 359.37 128.464Z" fill="#FDC068"/>
<path d="M318.913 226.538C318.533 226.538 318.153 226.284 318.09 225.841L313.468 200.832C313.404 200.389 313.658 199.946 314.101 199.882C314.544 199.819 314.987 200.072 315.051 200.516L319.672 225.525C319.736 225.968 319.483 226.411 319.039 226.474C319.039 226.538 318.976 226.538 318.913 226.538Z" fill="#2B2B2B"/>
<path d="M373.236 252.623C373.046 252.623 372.92 252.56 372.73 252.433L362.41 244.835C362.03 244.582 361.966 244.076 362.22 243.696C362.473 243.316 362.979 243.253 363.359 243.506L373.679 251.104C374.059 251.357 374.123 251.863 373.869 252.243C373.743 252.496 373.489 252.623 373.236 252.623Z" fill="#2B2B2B"/>
<path d="M259.398 212.545C259.271 212.545 259.144 212.545 259.081 212.482C258.638 212.292 258.448 211.785 258.638 211.406L269.718 186.143C269.908 185.7 270.414 185.51 270.794 185.7C271.237 185.89 271.427 186.396 271.237 186.776L260.157 212.039C260.031 212.355 259.714 212.545 259.398 212.545Z" fill="#2B2B2B"/>
<path d="M306.376 143.406L314.291 133.276L341.453 150.941L306.376 143.406Z" fill="white"/>
<path d="M310.619 341.073C310.302 341.073 309.986 340.883 309.859 340.566L284.723 274.783C284.533 274.34 284.787 273.897 285.23 273.707C285.673 273.517 286.116 273.77 286.306 274.213L311.442 339.996C311.632 340.44 311.378 340.883 310.935 341.073C310.809 341.073 310.745 341.073 310.619 341.073Z" fill="#2B2B2B"/>
<path d="M233.755 380.327C233.312 380.327 232.932 379.948 232.932 379.504V364.879C232.932 364.436 233.312 364.056 233.755 364.056C234.199 364.056 234.578 364.436 234.578 364.879V379.504C234.578 379.948 234.199 380.327 233.755 380.327Z" fill="#2B2B2B"/>
<path d="M408.249 251.673C407.869 251.673 407.489 251.42 407.426 250.977C407.363 250.534 407.616 250.091 408.059 250.027L420.722 247.685C421.165 247.621 421.608 247.875 421.672 248.318C421.735 248.761 421.482 249.204 421.038 249.267L408.376 251.61C408.376 251.673 408.312 251.673 408.249 251.673Z" fill="#2B2B2B"/>
<path opacity="0.4" d="M380.074 531.078L367.538 496.192H423.888L430.409 531.078H380.074Z" fill="#2B2B2B"/>
<path d="M568.258 267.312L561.927 266.552C565.029 241.1 585.226 229.007 603.018 218.307C619.796 208.24 634.295 199.503 634.295 182.091H640.626C640.626 203.111 623.151 213.622 606.31 223.752C588.898 234.135 570.981 244.962 568.258 267.312Z" fill="#F9D5FF"/>
<path d="M273.643 117.258H267.312C267.312 103.012 249.331 99.0865 230.336 94.9078C211.406 90.7924 191.842 86.487 191.842 69.962H198.173C198.173 80.5988 211.469 84.3343 231.729 88.7663C251.357 93.0083 273.643 97.8835 273.643 117.258Z" fill="#F9D5FF"/>
<defs>
<linearGradient id="paint0_linear" x1="251.388" y1="279.435" x2="251.388" y2="152.489" gradientUnits="userSpaceOnUse">
<stop stop-color="#FFE0C2"/>
<stop offset="0.401" stop-color="#7AAEFC"/>
<stop offset="0.5908" stop-color="#B8C1FC"/>
<stop offset="1" stop-color="#D2D4D4"/>
</linearGradient>
<linearGradient id="paint1_linear" x1="306.533" y1="300.742" x2="306.533" y2="153.657" gradientUnits="userSpaceOnUse">
<stop stop-color="#FFE0C2"/>
<stop offset="0.401" stop-color="#7AAEFC"/>
<stop offset="0.5908" stop-color="#B8C1FC"/>
<stop offset="1" stop-color="#D2D4D4"/>
</linearGradient>
<linearGradient id="paint2_linear" x1="241.986" y1="212.988" x2="241.986" y2="554.053" gradientUnits="userSpaceOnUse">
<stop stop-color="#9774AC"/>
<stop offset="0.401" stop-color="#47A6D3"/>
<stop offset="0.5011" stop-color="#A7A7AE"/>
<stop offset="0.5908" stop-color="#E89AC0"/>
<stop offset="1" stop-color="#BFE7D1"/>
</linearGradient>
<linearGradient id="paint3_linear" x1="303.88" y1="223.499" x2="303.88" y2="548.972" gradientUnits="userSpaceOnUse">
<stop stop-color="#9774AC"/>
<stop offset="0.401" stop-color="#47A6D3"/>
<stop offset="0.5011" stop-color="#A7A7AE"/>
<stop offset="0.5908" stop-color="#E89AC0"/>
<stop offset="1" stop-color="#BFE7D1"/>
</linearGradient>
<linearGradient id="paint4_linear" x1="353.799" y1="223.867" x2="353.799" y2="522.46" gradientUnits="userSpaceOnUse">
<stop stop-color="#9774AC"/>
<stop offset="0.401" stop-color="#47A6D3"/>
<stop offset="0.5011" stop-color="#A7A7AE"/>
<stop offset="0.5908" stop-color="#E89AC0"/>
<stop offset="1" stop-color="#BFE7D1"/>
</linearGradient>
<linearGradient id="paint5_linear" x1="367.56" y1="294.45" x2="367.56" y2="153.903" gradientUnits="userSpaceOnUse">
<stop stop-color="#FFE0C2"/>
<stop offset="0.401" stop-color="#7AAEFC"/>
<stop offset="0.5908" stop-color="#B8C1FC"/>
<stop offset="1" stop-color="#D2D4D4"/>
</linearGradient>
</defs>
</svg>
